<svg width="800" height="600" xmlns="http://www.w3.org/2000/svg">
  <!-- Background -->
  <rect width="800" height="600" fill="#f8f9fa" rx="10" ry="10"/>

  <!-- Title -->
  <text x="400" y="40" font-family="Arial" font-size="24" text-anchor="middle" font-weight="bold">Tekton Operator Architecture</text>

  <!-- Kubernetes Cluster Box -->
  <rect x="50" y="70" width="700" height="480" fill="#e6f7ff" stroke="#1890ff" stroke-width="2" rx="8" ry="8"/>
  <text x="400" y="90" font-family="Arial" font-size="18" text-anchor="middle">Kubernetes Cluster</text>

  <!-- Tekton Operator Box -->
  <rect x="100" y="110" width="600" height="160" fill="#f0f5ff" stroke="#2f54eb" stroke-width="2" rx="6" ry="6"/>
  <text x="400" y="130" font-family="Arial" font-size="16" text-anchor="middle" font-weight="bold">Tekton Operator</text>

  <!-- Controller -->
  <rect x="120" y="150" width="260" height="100" fill="#d6e4ff" stroke="#597ef7" stroke-width="1.5" rx="5" ry="5"/>
  <text x="250" y="175" font-family="Arial" font-size="14" text-anchor="middle" font-weight="bold">Controller</text>
  <text x="250" y="195" font-family="Arial" font-size="12" text-anchor="middle">- Watches Custom Resources</text>
  <text x="250" y="215" font-family="Arial" font-size="12" text-anchor="middle">- Manages Component Lifecycle</text>
  <text x="250" y="235" font-family="Arial" font-size="12" text-anchor="middle">- Reconciles State</text>

  <!-- Webhook -->
  <rect x="420" y="150" width="260" height="100" fill="#d6e4ff" stroke="#597ef7" stroke-width="1.5" rx="5" ry="5"/>
  <text x="550" y="175" font-family="Arial" font-size="14" text-anchor="middle" font-weight="bold">Webhook</text>
  <text x="550" y="195" font-family="Arial" font-size="12" text-anchor="middle">- Validates CR Configuration</text>
  <text x="550" y="215" font-family="Arial" font-size="12" text-anchor="middle">- Applies Default Values</text>
  <text x="550" y="235" font-family="Arial" font-size="12" text-anchor="middle">- Prevents Invalid Settings</text>

  <!-- Custom Resources Box -->
  <rect x="100" y="290" width="600" height="140" fill="#e6fffb" stroke="#13c2c2" stroke-width="2" rx="6" ry="6"/>
  <text x="400" y="310" font-family="Arial" font-size="16" text-anchor="middle" font-weight="bold">Custom Resources</text>

  <!-- TektonConfig -->
  <rect x="120" y="330" width="170" height="80" fill="#bae7ff" stroke="#1890ff" stroke-width="1.5" rx="5" ry="5"/>
  <text x="205" y="355" font-family="Arial" font-size="14" text-anchor="middle" font-weight="bold">TektonConfig</text>
  <text x="205" y="375" font-family="Arial" font-size="12" text-anchor="middle">Top-level Orchestrator</text>
  <text x="205" y="395" font-family="Arial" font-size="12" text-anchor="middle">Component Configuration</text>

  <!-- Component CRs -->
  <rect x="310" y="330" width="370" height="80" fill="#bae7ff" stroke="#1890ff" stroke-width="1.5" rx="5" ry="5"/>
  <text x="495" y="355" font-family="Arial" font-size="14" text-anchor="middle" font-weight="bold">Component CRs</text>
  <text x="495" y="375" font-family="Arial" font-size="12" text-anchor="middle">TektonPipeline, TektonTrigger,</text>
  <text x="495" y="395" font-family="Arial" font-size="12" text-anchor="middle">TektonResult, TektonChain, TektonAddon, etc.</text>

  <!-- Tekton Components Box -->
  <rect x="100" y="450" width="600" height="80" fill="#f6ffed" stroke="#52c41a" stroke-width="2" rx="6" ry="6"/>
  <text x="400" y="470" font-family="Arial" font-size="16" text-anchor="middle" font-weight="bold">Tekton Components</text>
  <text x="400" y="495" font-family="Arial" font-size="12" text-anchor="middle">Pipelines, Triggers, Results, Chains, etc.</text>
  <text x="400" y="515" font-family="Arial" font-size="12" text-anchor="middle">Managed and configured by the Operator</text>

  <!-- Arrows from Controller to CRs -->
  <path d="M250,250 L250,330" stroke="#1890ff" stroke-width="2" fill="none" marker-end="url(#arrowhead)"/>
  <text x="265" y="290" font-family="Arial" font-size="12">Watch</text>

  <!-- Arrows from Webhook to CRs -->
  <path d="M550,250 L550,330" stroke="#1890ff" stroke-width="2" fill="none" marker-end="url(#arrowhead)"/>
  <text x="565" y="290" font-family="Arial" font-size="12">Validate</text>

  <!-- Arrows from TektonConfig to Component CRs -->
  <path d="M290,370 L310,370" stroke="#52c41a" stroke-width="2" fill="none" marker-end="url(#arrowhead)"/>
  <text x="300" y="360" font-family="Arial" font-size="12">Creates</text>

  <!-- Arrows from Component CRs to Components -->
  <path d="M495,410 L495,450" stroke="#52c41a" stroke-width="2" fill="none" marker-end="url(#arrowhead)"/>
  <text x="510" y="430" font-family="Arial" font-size="12">Manages</text>

  <!-- Arrowhead definition -->
  <defs>
    <marker id="arrowhead" markerWidth="10" markerHeight="7" refX="9" refY="3.5" orient="auto">
      <polygon points="0 0, 10 3.5, 0 7" fill="#1890ff"/>
    </marker>
  </defs>

  <!-- Legend -->
  <rect x="50" y="570" width="700" height="20" fill="none" stroke="none"/>
  <text x="400" y="585" font-family="Arial" font-size="12" text-anchor="middle">Tekton Operator Architecture - Custom Resource Management Flow</text>
</svg>