<svg width="800" height="600" xmlns="http://www.w3.org/2000/svg">
  <!-- Background -->
  <rect width="800" height="600" fill="#f8f9fa" />

  <!-- Title -->
  <text x="400" y="40" font-family="Arial" font-size="24" text-anchor="middle" font-weight="bold">Tekton Pipelines Architecture</text>

  <!-- Pipeline Section -->
  <rect x="100" y="80" width="600" height="120" rx="10" fill="#e6f7ff" stroke="#1890ff" stroke-width="2" />
  <text x="400" y="105" font-family="Arial" font-size="18" text-anchor="middle" font-weight="bold">Pipeline</text>
  <text x="400" y="130" font-family="Arial" font-size="14" text-anchor="middle">Defines a series of Tasks with execution order and dependencies</text>
  <text x="400" y="155" font-family="Arial" font-size="14" text-anchor="middle">Manages data flow between Tasks</text>
  <text x="400" y="180" font-family="Arial" font-size="14" text-anchor="middle">Supports conditional execution and parallel processing</text>

  <!-- Tasks Section -->
  <rect x="150" y="230" width="150" height="100" rx="10" fill="#f6ffed" stroke="#52c41a" stroke-width="2" />
  <text x="225" y="255" font-family="Arial" font-size="16" text-anchor="middle" font-weight="bold">Task 1</text>
  <text x="225" y="280" font-family="Arial" font-size="12" text-anchor="middle">Collection of Steps</text>
  <text x="225" y="300" font-family="Arial" font-size="12" text-anchor="middle">Runs as a Pod</text>

  <rect x="325" y="230" width="150" height="100" rx="10" fill="#f6ffed" stroke="#52c41a" stroke-width="2" />
  <text x="400" y="255" font-family="Arial" font-size="16" text-anchor="middle" font-weight="bold">Task 2</text>
  <text x="400" y="280" font-family="Arial" font-size="12" text-anchor="middle">Collection of Steps</text>
  <text x="400" y="300" font-family="Arial" font-size="12" text-anchor="middle">Runs as a Pod</text>

  <rect x="500" y="230" width="150" height="100" rx="10" fill="#f6ffed" stroke="#52c41a" stroke-width="2" />
  <text x="575" y="255" font-family="Arial" font-size="16" text-anchor="middle" font-weight="bold">Task 3</text>
  <text x="575" y="280" font-family="Arial" font-size="12" text-anchor="middle">Collection of Steps</text>
  <text x="575" y="300" font-family="Arial" font-size="12" text-anchor="middle">Runs as a Pod</text>

  <!-- Steps Section -->
  <rect x="175" y="360" width="100" height="80" rx="5" fill="#fff2e8" stroke="#fa8c16" stroke-width="2" />
  <text x="225" y="385" font-family="Arial" font-size="14" text-anchor="middle" font-weight="bold">Step 1</text>
  <text x="225" y="405" font-family="Arial" font-size="10" text-anchor="middle">Container</text>

  <rect x="175" y="450" width="100" height="80" rx="5" fill="#fff2e8" stroke="#fa8c16" stroke-width="2" />
  <text x="225" y="475" font-family="Arial" font-size="14" text-anchor="middle" font-weight="bold">Step 2</text>
  <text x="225" y="495" font-family="Arial" font-size="10" text-anchor="middle">Container</text>

  <!-- Execution Flow -->
  <line x1="225" y1="200" x2="225" y2="230" stroke="#1890ff" stroke-width="2" stroke-dasharray="5,5" />
  <line x1="400" y1="200" x2="400" y2="230" stroke="#1890ff" stroke-width="2" stroke-dasharray="5,5" />
  <line x1="575" y1="200" x2="575" y2="230" stroke="#1890ff" stroke-width="2" stroke-dasharray="5,5" />

  <line x1="225" y1="330" x2="225" y2="360" stroke="#52c41a" stroke-width="2" />
  <line x1="225" y1="440" x2="225" y2="450" stroke="#fa8c16" stroke-width="2" />

  <!-- Workspaces -->
  <rect x="50" y="380" width="100" height="80" rx="5" fill="#f9f0ff" stroke="#722ed1" stroke-width="2" />
  <text x="100" y="405" font-family="Arial" font-size="14" text-anchor="middle" font-weight="bold">Workspaces</text>
  <text x="100" y="425" font-family="Arial" font-size="10" text-anchor="middle">Shared Storage</text>
  <text x="100" y="445" font-family="Arial" font-size="10" text-anchor="middle">Between Tasks</text>

  <!-- Controller -->
  <rect x="550" y="400" width="200" height="120" rx="10" fill="#f0f5ff" stroke="#2f54eb" stroke-width="2" />
  <text x="650" y="425" font-family="Arial" font-size="16" text-anchor="middle" font-weight="bold">Tekton Controller</text>
  <text x="650" y="450" font-family="Arial" font-size="12" text-anchor="middle">Creates TaskRuns from Tasks</text>
  <text x="650" y="470" font-family="Arial" font-size="12" text-anchor="middle">Creates PipelineRuns from Pipelines</text>
  <text x="650" y="490" font-family="Arial" font-size="12" text-anchor="middle">Manages execution lifecycle</text>

  <!-- Connections -->
  <path d="M 300 280 L 325 280" stroke="#52c41a" stroke-width="2" marker-end="url(#arrowhead)" />
  <path d="M 475 280 L 500 280" stroke="#52c41a" stroke-width="2" marker-end="url(#arrowhead)" />
  <path d="M 150 420 L 175 420" stroke="#722ed1" stroke-width="2" stroke-dasharray="5,5" />

  <!-- Arrowhead marker -->
  <defs>
    <marker id="arrowhead" markerWidth="10" markerHeight="7" refX="10" refY="3.5" orient="auto">
      <polygon points="0 0, 10 3.5, 0 7" fill="#52c41a" />
    </marker>
  </defs>

  <!-- Legend -->
  <rect x="50" y="530" width="700" height="50" rx="5" fill="#ffffff" stroke="#d9d9d9" stroke-width="1" />
  <rect x="60" y="540" width="20" height="10" fill="#e6f7ff" stroke="#1890ff" stroke-width="1" />
  <text x="85" y="550" font-family="Arial" font-size="12">Pipeline</text>

  <rect x="160" y="540" width="20" height="10" fill="#f6ffed" stroke="#52c41a" stroke-width="1" />
  <text x="185" y="550" font-family="Arial" font-size="12">Task</text>

  <rect x="260" y="540" width="20" height="10" fill="#fff2e8" stroke="#fa8c16" stroke-width="1" />
  <text x="285" y="550" font-family="Arial" font-size="12">Step</text>

  <rect x="360" y="540" width="20" height="10" fill="#f9f0ff" stroke="#722ed1" stroke-width="1" />
  <text x="385" y="550" font-family="Arial" font-size="12">Workspace</text>

  <rect x="460" y="540" width="20" height="10" fill="#f0f5ff" stroke="#2f54eb" stroke-width="1" />
  <text x="485" y="550" font-family="Arial" font-size="12">Controller</text>
</svg>
